<?xml version="1.0" encoding="utf-8"?>
<!-- Generator: Adobe Illustrator 15.1.0, SVG Export Plug-In . SVG Version: 6.00 Build 0)  -->
<!DOCTYPE svg PUBLIC "-//W3C//DTD SVG 1.1//EN" "http://www.w3.org/Graphics/SVG/1.1/DTD/svg11.dtd">
<svg version="1.1" xmlns="http://www.w3.org/2000/svg" xmlns:xlink="http://www.w3.org/1999/xlink" x="0px" y="0px"
	 width="451.444px" height="138.086px" viewBox="0 0 451.444 138.086" enable-background="new 0 0 451.444 138.086"
	 xml:space="preserve">
<g id="Linie_pomocnicze_obszaru_roboczego">
</g>
<g id="Warstwa_1">
	<g>
		<path fill="#164194" d="M162.308,37.267c0.671,0.68,1.49,1.211,2.455,1.594c0.964,0.382,2.05,0.574,3.257,0.574
			s2.291-0.191,3.251-0.574c0.96-0.382,1.776-0.914,2.448-1.594s1.188-1.49,1.549-2.429c0.361-0.939,0.542-1.97,0.542-3.092V20.73
			h-3.825v11.016c0,0.68-0.089,1.292-0.268,1.836c-0.179,0.544-0.438,1.007-0.778,1.39c-0.34,0.382-0.757,0.678-1.25,0.886
			c-0.493,0.208-1.05,0.312-1.67,0.312c-0.629,0-1.19-0.104-1.683-0.312c-0.493-0.208-0.91-0.503-1.25-0.886
			c-0.34-0.383-0.6-0.846-0.778-1.39c-0.179-0.544-0.268-1.156-0.268-1.836V20.73h-3.825v11.016c0,1.122,0.181,2.153,0.542,3.092
			C161.12,35.777,161.636,36.586,162.308,37.267z M193.838,39.23h1.976v-18.5h-3.378v10.582c0,0.272,0.008,0.561,0.025,0.867
			s0.042,0.621,0.077,0.943l-9.282-11.793c-0.102-0.127-0.196-0.229-0.28-0.306c-0.085-0.076-0.174-0.138-0.268-0.185
			c-0.094-0.047-0.197-0.077-0.312-0.089c-0.115-0.013-0.253-0.019-0.414-0.019h-2.015v18.5h3.379V28.533
			c0-0.247-0.006-0.512-0.019-0.797c-0.013-0.285-0.032-0.576-0.058-0.873l9.218,11.717c0.196,0.238,0.396,0.406,0.599,0.504
			C193.29,39.181,193.541,39.23,193.838,39.23z M204.051,20.73h-3.85v18.5h3.85V20.73z M215.832,39.23l3.825-12.1
			c0.06-0.17,0.117-0.357,0.172-0.561s0.112-0.417,0.172-0.638c0.051,0.221,0.104,0.434,0.16,0.638
			c0.055,0.204,0.117,0.391,0.185,0.561l3.787,12.1h3.456l5.737-18.5h-3.01c-0.322,0-0.599,0.085-0.828,0.255
			s-0.374,0.365-0.434,0.586l-2.869,10.43c-0.068,0.272-0.136,0.569-0.204,0.892c-0.068,0.323-0.136,0.663-0.204,1.02
			c-0.068-0.357-0.146-0.697-0.236-1.02c-0.089-0.323-0.181-0.62-0.274-0.892l-3.328-10.43c-0.102-0.247-0.257-0.448-0.465-0.605
			c-0.208-0.157-0.478-0.236-0.81-0.236h-1.122c-0.324,0-0.598,0.087-0.823,0.261s-0.372,0.368-0.44,0.58l-3.34,10.43
			c-0.102,0.289-0.196,0.601-0.28,0.937c-0.085,0.336-0.166,0.69-0.242,1.064c-0.068-0.374-0.139-0.727-0.21-1.058
			c-0.072-0.332-0.143-0.646-0.21-0.943l-2.869-10.43c-0.068-0.255-0.215-0.459-0.44-0.612c-0.226-0.153-0.504-0.229-0.835-0.229
			h-3.213l5.725,18.5H215.832z M247.694,36.234h-7.931v-4.858h6.171v-2.894h-6.171v-4.756h7.931V20.73h-11.781v18.5h11.781V36.234z
			 M254.885,32.179h1.301c0.34,0,0.597,0.051,0.771,0.153c0.174,0.102,0.333,0.263,0.478,0.484l3.52,5.674
			c0.288,0.493,0.756,0.739,1.402,0.739h3.455l-4.31-6.655c-0.17-0.264-0.363-0.491-0.58-0.682
			c-0.217-0.191-0.448-0.355-0.694-0.491c0.628-0.212,1.186-0.493,1.67-0.841s0.893-0.748,1.224-1.199
			c0.332-0.45,0.585-0.95,0.759-1.498s0.262-1.128,0.262-1.74c0-0.791-0.137-1.515-0.408-2.174
			c-0.272-0.659-0.701-1.226-1.288-1.702c-0.586-0.476-1.339-0.848-2.257-1.116s-2.022-0.401-3.314-0.401h-5.814v18.5h3.825V32.179z
			 M254.885,23.637h1.989c1.189,0,2.076,0.242,2.658,0.727c0.582,0.484,0.873,1.164,0.873,2.04c0,0.442-0.068,0.85-0.203,1.224
			c-0.137,0.374-0.35,0.699-0.638,0.976c-0.289,0.276-0.659,0.493-1.109,0.65c-0.451,0.157-0.986,0.235-1.606,0.235h-1.964V23.637z
			 M275.062,35.736c-0.489,0.408-1.18,0.612-2.072,0.612c-0.611,0-1.137-0.085-1.574-0.255c-0.438-0.17-0.822-0.357-1.154-0.561
			c-0.331-0.204-0.624-0.391-0.879-0.561c-0.256-0.17-0.498-0.255-0.728-0.255c-0.17,0-0.331,0.045-0.484,0.134
			c-0.153,0.089-0.276,0.202-0.37,0.338l-1.121,1.81c0.356,0.366,0.772,0.697,1.249,0.995c0.476,0.298,0.983,0.553,1.523,0.765
			s1.101,0.378,1.684,0.497c0.582,0.119,1.166,0.179,1.753,0.179c1.028,0,1.948-0.157,2.761-0.472
			c0.812-0.314,1.493-0.746,2.046-1.294c0.553-0.548,0.976-1.19,1.269-1.925c0.293-0.735,0.439-1.523,0.439-2.365
			c0-0.773-0.121-1.43-0.363-1.97c-0.242-0.54-0.561-0.996-0.956-1.371c-0.396-0.374-0.844-0.684-1.345-0.931
			c-0.502-0.247-1.017-0.461-1.543-0.644c-0.527-0.183-1.041-0.351-1.543-0.504c-0.501-0.153-0.949-0.327-1.345-0.523
			c-0.396-0.195-0.714-0.427-0.956-0.695c-0.242-0.268-0.364-0.605-0.364-1.013c0-0.638,0.222-1.154,0.663-1.549
			c0.442-0.396,1.105-0.593,1.989-0.593c0.502,0,0.939,0.066,1.313,0.197c0.374,0.132,0.705,0.274,0.994,0.427
			c0.289,0.153,0.542,0.295,0.759,0.427s0.419,0.198,0.605,0.198c0.195,0,0.355-0.045,0.479-0.134
			c0.123-0.089,0.244-0.231,0.363-0.427l0.943-1.798c-0.654-0.612-1.456-1.09-2.403-1.435c-0.948-0.344-1.979-0.516-3.092-0.516
			c-0.994,0-1.876,0.153-2.646,0.459c-0.77,0.306-1.418,0.71-1.944,1.211c-0.527,0.502-0.927,1.076-1.198,1.722
			c-0.272,0.646-0.408,1.313-0.408,2.001c0,0.859,0.121,1.577,0.363,2.155c0.242,0.578,0.559,1.062,0.95,1.454
			c0.391,0.391,0.837,0.706,1.338,0.943c0.502,0.238,1.016,0.442,1.543,0.612c0.527,0.17,1.041,0.325,1.543,0.466
			c0.502,0.14,0.947,0.308,1.339,0.503c0.391,0.196,0.707,0.438,0.95,0.727c0.242,0.289,0.363,0.667,0.363,1.135
			C275.795,34.721,275.55,35.329,275.062,35.736z M286.785,39.23h3.825v-7.102l6.719-11.398h-3.391
			c-0.323,0-0.587,0.089-0.791,0.268s-0.357,0.37-0.459,0.574l-3.009,5.827c-0.399,0.757-0.719,1.462-0.956,2.117
			c-0.119-0.34-0.262-0.68-0.428-1.02c-0.165-0.34-0.351-0.706-0.555-1.097l-3.034-5.827c-0.119-0.247-0.278-0.448-0.478-0.605
			c-0.2-0.157-0.466-0.236-0.797-0.236h-3.366l6.719,11.398V39.23z M303.386,39.23h3.838V23.815h5.405V20.73h-14.649v3.085h5.406
			V39.23z M327.228,36.234h-7.931v-4.858h6.171v-2.894h-6.171v-4.756h7.931V20.73h-11.781v18.5h11.781V36.234z M343.688,20.73
			h-14.649v3.085h5.406V39.23h3.838V23.815h5.405V20.73z M163.57,61.17c0-0.238-0.009-0.495-0.025-0.771
			c-0.017-0.276-0.039-0.559-0.064-0.848l5.317,10.06c0.136,0.272,0.319,0.478,0.548,0.619c0.229,0.14,0.493,0.21,0.791,0.21h0.535
			c0.604,0,1.05-0.276,1.339-0.829l5.279-10.034c-0.026,0.289-0.045,0.569-0.058,0.841s-0.019,0.523-0.019,0.752v11.36h3.378v-18.5
			h-2.907c-0.17,0-0.317,0.004-0.44,0.013c-0.123,0.009-0.234,0.032-0.332,0.07c-0.098,0.038-0.189,0.098-0.274,0.178
			c-0.085,0.081-0.166,0.193-0.242,0.338l-5.138,9.831c-0.162,0.297-0.315,0.607-0.459,0.931s-0.28,0.654-0.408,0.995
			c-0.127-0.332-0.261-0.655-0.402-0.969c-0.14-0.314-0.287-0.62-0.44-0.918l-5.176-9.869c-0.077-0.145-0.155-0.257-0.236-0.338
			c-0.081-0.081-0.17-0.14-0.268-0.178c-0.098-0.039-0.21-0.062-0.338-0.07c-0.127-0.008-0.272-0.013-0.434-0.013h-2.907v18.5h3.379
			V61.17z M184.964,72.53h3.851v-18.5h-3.851V72.53z M193.2,54.03v18.5h3.825v-8.02h1.071c0.4,0,0.71,0.049,0.931,0.146
			c0.221,0.098,0.412,0.262,0.574,0.491l4.755,6.655c0.077,0.119,0.157,0.224,0.243,0.312c0.084,0.089,0.187,0.164,0.306,0.223
			c0.119,0.06,0.257,0.106,0.415,0.141s0.346,0.051,0.567,0.051h3.404l-6.043-8.631c-0.221-0.314-0.451-0.567-0.688-0.759
			c-0.238-0.191-0.506-0.346-0.803-0.465c0.408-0.212,0.803-0.565,1.186-1.058l5.891-7.586h-3.315c-0.383,0-0.706,0.058-0.969,0.172
			c-0.264,0.115-0.506,0.321-0.727,0.619l-4.679,6.26c-0.281,0.391-0.735,0.586-1.364,0.586h-0.752V54.03H193.2z M225.426,56.535
			c-0.829-0.846-1.826-1.509-2.99-1.989c-1.165-0.48-2.457-0.72-3.876-0.72s-2.711,0.24-3.876,0.72
			c-1.165,0.48-2.163,1.141-2.996,1.983c-0.833,0.841-1.477,1.838-1.932,2.99s-0.682,2.403-0.682,3.755s0.228,2.605,0.682,3.761
			c0.455,1.156,1.099,2.155,1.932,2.996c0.833,0.842,1.832,1.503,2.996,1.982c1.165,0.48,2.457,0.721,3.876,0.721
			s2.711-0.24,3.876-0.721c1.164-0.479,2.161-1.141,2.99-1.982c0.829-0.841,1.47-1.84,1.925-2.996
			c0.454-1.156,0.682-2.41,0.682-3.761c0-1.343-0.228-2.59-0.682-3.742C226.896,58.38,226.255,57.381,225.426,56.535z
			 M223.737,65.894c-0.255,0.77-0.623,1.422-1.103,1.957c-0.48,0.536-1.062,0.946-1.747,1.23s-1.46,0.427-2.327,0.427
			c-0.867,0-1.645-0.143-2.333-0.427s-1.273-0.695-1.753-1.23c-0.48-0.535-0.848-1.188-1.103-1.957
			c-0.255-0.769-0.382-1.643-0.382-2.62c0-0.969,0.127-1.838,0.382-2.607c0.255-0.769,0.623-1.423,1.103-1.963
			c0.48-0.54,1.064-0.952,1.753-1.237s1.466-0.427,2.333-0.427c0.867,0,1.643,0.143,2.327,0.427s1.267,0.697,1.747,1.237
			c0.48,0.54,0.848,1.194,1.103,1.963c0.255,0.77,0.382,1.639,0.382,2.607C224.119,64.251,223.992,65.125,223.737,65.894z
			 M231.795,72.53h10.978v-3.111h-7.152v-5.164l3.965-2.053c0.314-0.119,0.472-0.361,0.472-0.727v-2.55l-4.437,2.206V54.03h-3.825
			v8.823l-1.836,0.943c-0.28,0.127-0.421,0.344-0.421,0.65v2.613l2.257-1.122V72.53z M247.694,71.689l1.249-3.532h7.37l1.249,3.532
			c0.103,0.246,0.257,0.448,0.466,0.605c0.208,0.157,0.478,0.235,0.81,0.235h2.971l-7.217-18.5h-3.914l-7.229,18.5h2.996
			c0.323,0,0.591-0.087,0.804-0.261C247.46,72.094,247.609,71.901,247.694,71.689z M251.876,59.869
			c0.119-0.297,0.242-0.648,0.37-1.052c0.127-0.404,0.25-0.839,0.369-1.307c0.128,0.459,0.257,0.888,0.39,1.288
			c0.131,0.399,0.257,0.748,0.376,1.045l2.001,5.661h-5.508L251.876,59.869z M269.809,70.867c0.515-0.6,0.899-1.318,1.154-2.155
			c0.255-0.837,0.382-1.774,0.382-2.812V54.03h-3.824v11.959c0,0.663-0.058,1.226-0.173,1.689c-0.114,0.463-0.286,0.839-0.516,1.128
			s-0.515,0.497-0.854,0.625s-0.739,0.191-1.198,0.191c-0.332,0-0.61-0.025-0.836-0.077c-0.225-0.051-0.41-0.077-0.554-0.077
			c-0.256,0-0.451,0.062-0.587,0.185s-0.217,0.287-0.242,0.491l-0.204,2.244c0.501,0.119,0.979,0.206,1.435,0.261
			c0.454,0.056,0.916,0.083,1.383,0.083c1.028,0,1.93-0.161,2.703-0.484S269.294,71.465,269.809,70.867z M280.321,54.03l-7.229,18.5
			h2.996c0.323,0,0.591-0.087,0.804-0.261c0.212-0.175,0.361-0.368,0.446-0.58l1.249-3.532h7.37l1.249,3.532
			c0.103,0.246,0.257,0.448,0.466,0.605c0.208,0.157,0.478,0.235,0.81,0.235h2.971l-7.217-18.5H280.321z M279.518,65.505
			l2.002-5.636c0.119-0.297,0.242-0.648,0.37-1.052c0.127-0.404,0.251-0.839,0.369-1.307c0.128,0.459,0.258,0.888,0.39,1.288
			s0.257,0.748,0.376,1.045l2.002,5.661H279.518z M309.493,63.14c-0.238-0.191-0.506-0.346-0.804-0.465
			c0.408-0.212,0.804-0.565,1.186-1.058l5.891-7.586h-3.314c-0.383,0-0.706,0.058-0.97,0.172c-0.264,0.115-0.506,0.321-0.727,0.619
			l-4.679,6.26c-0.281,0.391-0.735,0.586-1.364,0.586h-0.753V54.03h-3.824v18.5h3.824v-8.02h1.071c0.399,0,0.71,0.049,0.931,0.146
			c0.221,0.098,0.412,0.262,0.574,0.491l4.756,6.655c0.076,0.119,0.157,0.224,0.242,0.312s0.187,0.164,0.306,0.223
			c0.119,0.06,0.257,0.106,0.414,0.141s0.347,0.051,0.567,0.051h3.404l-6.043-8.631C309.96,63.584,309.73,63.331,309.493,63.14z
			 M332.36,56.535c-0.829-0.846-1.826-1.509-2.99-1.989c-1.164-0.48-2.457-0.72-3.876-0.72c-1.42,0-2.712,0.24-3.876,0.72
			c-1.164,0.48-2.163,1.141-2.996,1.983c-0.833,0.841-1.478,1.838-1.932,2.99c-0.455,1.152-0.683,2.403-0.683,3.755
			s0.228,2.605,0.683,3.761c0.454,1.156,1.099,2.155,1.932,2.996c0.833,0.842,1.832,1.503,2.996,1.982
			c1.164,0.48,2.456,0.721,3.876,0.721c1.419,0,2.712-0.24,3.876-0.721c1.164-0.479,2.161-1.141,2.99-1.982
			c0.828-0.841,1.471-1.84,1.925-2.996c0.455-1.156,0.683-2.41,0.683-3.761c0-1.343-0.228-2.59-0.683-3.742
			C333.831,58.38,333.188,57.381,332.36,56.535z M330.671,65.894c-0.255,0.77-0.623,1.422-1.104,1.957
			c-0.479,0.536-1.062,0.946-1.746,1.23c-0.685,0.285-1.46,0.427-2.327,0.427s-1.645-0.143-2.333-0.427s-1.273-0.695-1.753-1.23
			c-0.48-0.535-0.849-1.188-1.104-1.957c-0.255-0.769-0.382-1.643-0.382-2.62c0-0.969,0.127-1.838,0.382-2.607
			c0.255-0.769,0.623-1.423,1.104-1.963c0.479-0.54,1.064-0.952,1.753-1.237s1.466-0.427,2.333-0.427s1.643,0.143,2.327,0.427
			c0.684,0.285,1.267,0.697,1.746,1.237c0.48,0.54,0.849,1.194,1.104,1.963c0.255,0.77,0.383,1.639,0.383,2.607
			C331.054,64.251,330.926,65.125,330.671,65.894z M350.089,55.719c-0.595-0.531-1.354-0.945-2.276-1.243
			c-0.922-0.297-2.017-0.446-3.282-0.446h-6.248v18.5h3.825v-6.362h2.423c1.231,0,2.308-0.151,3.226-0.453s1.679-0.725,2.282-1.269
			s1.054-1.194,1.352-1.951c0.297-0.756,0.446-1.589,0.446-2.499c0-0.858-0.143-1.653-0.428-2.384
			C351.123,56.881,350.684,56.25,350.089,55.719z M347.162,62.368c-0.557,0.578-1.434,0.867-2.632,0.867h-2.423v-6.299h2.423
			c0.595,0,1.108,0.073,1.542,0.217c0.434,0.145,0.793,0.351,1.077,0.619c0.285,0.268,0.498,0.591,0.638,0.969
			c0.141,0.378,0.211,0.797,0.211,1.256C347.998,61,347.719,61.791,347.162,62.368z M354.78,72.53h11.781v-2.996h-7.931v-4.857
			h6.171v-2.895h-6.171v-4.756h7.931V54.03H354.78V72.53z M379.79,65.192c-0.217-0.191-0.449-0.355-0.695-0.491
			c0.629-0.212,1.186-0.493,1.67-0.842c0.484-0.348,0.893-0.748,1.225-1.198c0.331-0.451,0.584-0.95,0.758-1.498
			c0.175-0.548,0.262-1.128,0.262-1.741c0-0.791-0.136-1.515-0.408-2.174c-0.271-0.659-0.701-1.226-1.287-1.702
			c-0.587-0.476-1.339-0.848-2.257-1.115c-0.918-0.268-2.023-0.402-3.315-0.402h-5.813v18.5h3.824v-7.05h1.301
			c0.34,0,0.598,0.051,0.771,0.153s0.334,0.264,0.479,0.484l3.519,5.674c0.289,0.493,0.757,0.739,1.402,0.739h3.455l-4.309-6.655
			C380.199,65.611,380.006,65.384,379.79,65.192z M378.432,61.903c-0.289,0.276-0.659,0.493-1.109,0.65s-0.986,0.236-1.606,0.236
			h-1.964v-5.853h1.989c1.19,0,2.076,0.243,2.658,0.727s0.874,1.165,0.874,2.04c0,0.442-0.068,0.85-0.204,1.224
			C378.933,61.302,378.721,61.627,378.432,61.903z M399.469,64.612c0,0.272,0.009,0.561,0.025,0.867
			c0.018,0.306,0.043,0.621,0.077,0.943l-9.282-11.794c-0.103-0.127-0.195-0.229-0.28-0.306c-0.085-0.077-0.175-0.138-0.268-0.185
			c-0.094-0.047-0.198-0.077-0.312-0.089c-0.115-0.013-0.254-0.019-0.415-0.019h-2.015v18.5h3.379V61.833
			c0-0.246-0.006-0.512-0.019-0.797c-0.013-0.285-0.032-0.576-0.058-0.873l9.218,11.717c0.196,0.238,0.396,0.406,0.6,0.504
			s0.455,0.146,0.752,0.146h1.977v-18.5h-3.379V64.612z M407.233,72.53h3.851v-18.5h-3.851V72.53z M442.678,54.03h-3.914
			l-7.22,18.477l-6.027-8.608c-0.221-0.314-0.45-0.567-0.688-0.759s-0.506-0.346-0.803-0.465c0.407-0.212,0.803-0.565,1.186-1.058
			l5.891-7.586h-3.315c-0.383,0-0.705,0.058-0.969,0.172c-0.264,0.115-0.506,0.321-0.727,0.619l-4.68,6.26
			c-0.28,0.391-0.735,0.586-1.364,0.586h-0.752V54.03h-3.825v18.5h3.825v-8.02h1.071c0.398,0,0.709,0.049,0.931,0.146
			c0.221,0.098,0.412,0.262,0.573,0.491l4.756,6.655c0.076,0.119,0.157,0.224,0.242,0.312s0.187,0.164,0.307,0.223
			c0.118,0.06,0.257,0.106,0.414,0.141s0.346,0.051,0.567,0.051h6.375c0.322,0,0.59-0.087,0.803-0.261
			c0.213-0.175,0.361-0.368,0.446-0.58l1.25-3.532h7.369l1.25,3.532c0.102,0.246,0.257,0.448,0.465,0.605s0.479,0.235,0.81,0.235
			h2.971L442.678,54.03z M437.961,65.505l2.002-5.636c0.118-0.297,0.241-0.648,0.369-1.052s0.251-0.839,0.37-1.307
			c0.127,0.459,0.257,0.888,0.389,1.288s0.257,0.748,0.376,1.045l2.002,5.661H437.961z M181.497,87.584
			c-0.23,0.171-0.375,0.366-0.434,0.587l-2.869,10.43c-0.068,0.271-0.136,0.569-0.204,0.893c-0.068,0.322-0.136,0.662-0.204,1.02
			c-0.068-0.357-0.146-0.697-0.236-1.02c-0.089-0.323-0.181-0.621-0.274-0.893l-3.328-10.43c-0.102-0.246-0.257-0.448-0.465-0.605
			s-0.478-0.236-0.81-0.236h-1.122c-0.323,0-0.597,0.088-0.822,0.262s-0.372,0.367-0.44,0.58l-3.34,10.43
			c-0.102,0.289-0.196,0.602-0.281,0.937c-0.085,0.336-0.166,0.691-0.242,1.065c-0.068-0.374-0.138-0.728-0.21-1.059
			c-0.073-0.332-0.143-0.646-0.21-0.943l-2.869-10.43c-0.068-0.255-0.215-0.459-0.44-0.612c-0.226-0.153-0.504-0.229-0.835-0.229
			h-3.213l5.725,18.5h3.468l3.825-12.1c0.06-0.17,0.117-0.356,0.172-0.561c0.055-0.204,0.112-0.417,0.172-0.638
			c0.051,0.221,0.104,0.434,0.16,0.638c0.055,0.204,0.117,0.391,0.185,0.561l3.787,12.1h3.455l5.737-18.5h-3.009
			C182.002,87.33,181.726,87.415,181.497,87.584z M192.92,90.416h5.406v15.414h3.838V90.416h5.406V87.33H192.92V90.416z
			 M224.61,89.835c-0.829-0.846-1.825-1.509-2.99-1.989s-2.457-0.721-3.876-0.721s-2.711,0.24-3.876,0.721s-2.163,1.141-2.996,1.982
			s-1.477,1.839-1.932,2.99c-0.455,1.151-0.682,2.403-0.682,3.755s0.227,2.605,0.682,3.761c0.455,1.156,1.099,2.155,1.932,2.996
			c0.833,0.842,1.832,1.503,2.996,1.983s2.457,0.72,3.876,0.72s2.711-0.239,3.876-0.72s2.161-1.142,2.99-1.983
			c0.829-0.841,1.471-1.84,1.925-2.996c0.455-1.155,0.683-2.409,0.683-3.761c0-1.343-0.228-2.591-0.683-3.742
			C226.081,91.679,225.439,90.681,224.61,89.835z M222.921,99.194c-0.255,0.77-0.623,1.422-1.103,1.957
			c-0.48,0.535-1.062,0.945-1.747,1.23c-0.684,0.284-1.46,0.427-2.327,0.427c-0.867,0-1.645-0.143-2.333-0.427
			c-0.688-0.285-1.273-0.695-1.753-1.23c-0.48-0.535-0.848-1.188-1.103-1.957c-0.255-0.77-0.383-1.643-0.383-2.62
			c0-0.969,0.127-1.838,0.383-2.607c0.255-0.77,0.623-1.424,1.103-1.964c0.48-0.539,1.064-0.952,1.753-1.236
			c0.688-0.285,1.466-0.428,2.333-0.428c0.867,0,1.643,0.143,2.327,0.428c0.684,0.284,1.266,0.697,1.747,1.236
			c0.48,0.54,0.848,1.194,1.103,1.964s0.382,1.639,0.382,2.607C223.303,97.551,223.176,98.424,222.921,99.194z M240.395,98.493
			c-0.217-0.191-0.448-0.355-0.694-0.491c0.628-0.212,1.186-0.493,1.67-0.842c0.484-0.348,0.893-0.747,1.224-1.198
			c0.331-0.45,0.584-0.95,0.759-1.498c0.174-0.548,0.262-1.128,0.262-1.74c0-0.791-0.137-1.516-0.408-2.174
			c-0.272-0.659-0.701-1.227-1.288-1.702s-1.339-0.848-2.257-1.116c-0.918-0.268-2.022-0.401-3.314-0.401h-5.814v18.5h3.825v-7.051
			h1.301c0.34,0,0.597,0.052,0.771,0.153c0.174,0.103,0.333,0.264,0.478,0.484l3.52,5.674c0.288,0.493,0.756,0.739,1.402,0.739
			h3.455l-4.31-6.655C240.805,98.912,240.611,98.684,240.395,98.493z M239.037,95.203c-0.29,0.276-0.659,0.493-1.11,0.65
			c-0.45,0.157-0.985,0.236-1.605,0.236h-1.964v-5.853h1.989c1.189,0,2.076,0.242,2.658,0.727s0.873,1.165,0.873,2.04
			c0,0.442-0.068,0.851-0.204,1.225S239.325,94.927,239.037,95.203z M258.978,98.346c0,0.68-0.089,1.292-0.268,1.836
			s-0.438,1.007-0.777,1.39c-0.341,0.382-0.757,0.678-1.25,0.886s-1.05,0.312-1.67,0.312c-0.629,0-1.19-0.104-1.684-0.312
			c-0.492-0.208-0.909-0.504-1.249-0.886c-0.34-0.383-0.6-0.846-0.778-1.39c-0.178-0.544-0.268-1.156-0.268-1.836V87.33h-3.825
			v11.017c0,1.121,0.181,2.152,0.542,3.092c0.361,0.938,0.878,1.749,1.55,2.429c0.671,0.68,1.489,1.211,2.454,1.594
			c0.965,0.382,2.051,0.573,3.258,0.573s2.29-0.191,3.251-0.573c0.961-0.383,1.776-0.914,2.448-1.594
			c0.671-0.68,1.188-1.49,1.549-2.429c0.361-0.939,0.542-1.971,0.542-3.092V87.33h-3.825V98.346z M279.429,97.913
			c0,0.271,0.008,0.561,0.025,0.866c0.018,0.307,0.043,0.621,0.076,0.944l-9.281-11.794c-0.103-0.128-0.196-0.229-0.281-0.307
			c-0.085-0.076-0.174-0.138-0.268-0.185s-0.197-0.076-0.312-0.089c-0.114-0.013-0.253-0.02-0.414-0.02h-2.015v18.5h3.379V95.133
			c0-0.247-0.007-0.513-0.019-0.797c-0.014-0.285-0.032-0.576-0.058-0.874l9.218,11.718c0.195,0.237,0.396,0.405,0.6,0.503
			s0.454,0.146,0.752,0.146h1.977v-18.5h-3.379V97.913z M287.193,105.83h3.851v-18.5h-3.851V105.83z M306.969,98.346
			c0,0.68-0.09,1.292-0.269,1.836c-0.178,0.544-0.438,1.007-0.777,1.39c-0.34,0.382-0.757,0.678-1.249,0.886
			c-0.493,0.208-1.05,0.312-1.671,0.312c-0.629,0-1.189-0.104-1.683-0.312s-0.91-0.504-1.25-0.886
			c-0.34-0.383-0.599-0.846-0.777-1.39s-0.268-1.156-0.268-1.836V87.33H295.2v11.017c0,1.121,0.181,2.152,0.542,3.092
			c0.361,0.938,0.877,1.749,1.549,2.429s1.49,1.211,2.454,1.594c0.965,0.382,2.051,0.573,3.258,0.573s2.291-0.191,3.252-0.573
			c0.96-0.383,1.776-0.914,2.447-1.594c0.672-0.68,1.188-1.49,1.55-2.429c0.361-0.939,0.541-1.971,0.541-3.092V87.33h-3.824V98.346z
			"/>
		<path fill-rule="evenodd" clip-rule="evenodd" fill="#164194" d="M64.581,0.003C29.4,0.003,0.88,28.519,0.88,63.704
			c0,27.867,17.894,51.555,42.817,60.2c1.667-10.062,10.408-17.734,20.942-17.734c10.521,0,19.252,7.652,20.935,17.696
			c24.866-8.678,42.705-32.336,42.705-60.162C128.279,28.519,99.762,0.003,64.581,0.003z"/>
		<circle fill-rule="evenodd" clip-rule="evenodd" fill="#FFCC00" cx="64.579" cy="63.664" r="21.23"/>
		<circle fill-rule="evenodd" clip-rule="evenodd" fill="#164194" cx="64.579" cy="127.471" r="10.615"/>
		<rect x="-41.58" y="-42.459" fill-rule="evenodd" clip-rule="evenodd" fill="none" width="533.935" height="223.007"/>
	</g>
</g>
</svg>
